<svg width="16" height="16" viewBox="0 0 16 16" fill="none" xmlns="http://www.w3.org/2000/svg">
<g clip-path="url(#clip0_442_2359)">
<path d="M9.84568 3.69396C10.2973 3.69365 10.7688 4.04266 10.7688 4.96636V8.0018C10.7688 8.46747 11.1933 8.65147 11.3779 8.713L13.477 9.47873C14.3693 9.81719 14.9232 10.771 14.677 11.7556L13.6924 14.9555C13.6309 15.2016 13.4155 15.3863 13.1386 15.3863H8.18471C7.93856 15.3863 7.72317 15.2632 7.63086 15.0478C6.44067 12.2846 5.78071 10.7524 5.65097 10.4514C5.52124 10.1503 5.60684 9.90812 5.90779 9.72488C6.46163 9.32488 7.2924 9.73705 7.63086 10.3217L8.12802 10.9997C8.32364 11.3713 8.92317 11.3713 8.92317 10.8174V4.96636C8.92317 4.04266 9.39406 3.69427 9.84568 3.69396ZM14.1539 0.617188C14.8309 0.617188 15.3847 1.17103 15.3847 1.84796V6.46334C15.3847 7.04252 14.8251 7.69504 14.1539 7.69411H12.311C12.0001 7.69411 12.0001 7.4443 12.0001 7.4046V4.77103C12.0001 3.58787 11.3905 2.46334 9.84625 2.46334C8.302 2.46334 7.6924 3.44426 7.6924 4.77103V7.4046C7.6924 7.5119 7.61093 7.69411 7.38095 7.69411H1.84625C1.16932 7.69411 0.615479 7.14026 0.615479 6.46334V1.84796C0.615479 1.17103 1.16932 0.617188 1.84625 0.617188H14.1539Z" fill="#747474"/>
</g>
<defs>
<clipPath id="clip0_442_2359">
<rect width="16" height="16" fill="white"/>
</clipPath>
</defs>
</svg>
