<svg width="16" height="16" viewBox="0 0 16 16" fill="none" xmlns="http://www.w3.org/2000/svg">
<path fill-rule="evenodd" clip-rule="evenodd" d="M11.4771 3.0478H4.86168C4.21553 3.0478 3.72322 3.57087 3.72322 4.18624V4.37086C3.72322 4.46316 3.81553 4.55547 3.90783 4.55547H9.93863C10.5848 4.55547 11.0771 5.07854 11.0771 5.69391V12.4938C11.0771 12.5861 11.1694 12.6784 11.2617 12.6784H11.4463C12.0925 12.6784 12.5848 12.1553 12.5848 11.54V4.18624C12.6156 3.57087 12.0925 3.0478 11.4771 3.0478ZM13.9384 0.617188H7.323C6.67684 0.617188 6.18453 1.14026 6.18453 1.75563V1.94024C6.18453 2.03255 6.27684 2.12485 6.36915 2.12485H12.3999C13.0461 2.12485 13.5384 2.64792 13.5384 3.2633V10.0632C13.5384 10.1555 13.6307 10.2478 13.723 10.2478H13.9076C14.5538 10.2478 15.0461 9.72472 15.0461 9.10935V1.75563C15.0769 1.14026 14.5538 0.617188 13.9384 0.617188ZM10.0308 6.70969C10.0308 6.09432 9.50775 5.57125 8.89236 5.57125H2.06156C1.41541 5.57125 0.923096 6.09432 0.923096 6.70969V14.248C0.923096 14.8634 1.44617 15.3865 2.06156 15.3865H8.89236C9.53852 15.3865 10.0308 14.8634 10.0308 14.248V6.70969Z" fill="#3863b3ee"/>
<path fill-rule="evenodd" clip-rule="evenodd" d="M5.2884 10.9991L4.92302 12.6914C4.90379 12.7876 5.02879 12.8549 5.08648 12.7779L7.10571 10.2779C7.1634 10.2106 7.11532 10.1145 7.0384 10.1145H5.96148C5.88455 10.1145 5.83648 10.0279 5.87494 9.97025L6.82686 8.41256C6.88455 8.31641 6.81725 8.19141 6.70186 8.19141H4.99994C4.89417 8.19141 4.80763 8.25871 4.76917 8.35487L3.97109 10.6914C3.94225 10.7876 4.00955 10.8837 4.10571 10.8837H5.20186C5.25955 10.8837 5.30763 10.9414 5.2884 10.9991V10.9991Z" fill="white"/>
</svg>
