<svg width="16" height="16" viewBox="0 0 16 16" fill="none" xmlns="http://www.w3.org/2000/svg">
<path fill-rule="evenodd" clip-rule="evenodd" d="M2.46163 3.23108C2.46163 2.98492 2.24625 2.76953 2.0001 2.76953H1.07702C0.830863 2.76953 0.615479 2.98492 0.615479 3.23108V4.15418C0.615479 4.40034 0.830863 4.61573 1.07702 4.61573H2.0001C2.24625 4.61573 2.46163 4.40034 2.46163 4.15418V3.23108ZM15.3847 3.23108C15.3847 2.98492 15.1693 2.76953 14.9232 2.76953H4.15395C3.90779 2.76953 3.69241 2.98492 3.69241 3.23108V4.15418C3.69241 4.40034 3.90779 4.61573 4.15395 4.61573H14.9232C15.1693 4.61573 15.3847 4.40034 15.3847 4.15418V3.23108ZM2.46163 7.53877C2.46163 7.29261 2.24625 7.07722 2.0001 7.07722H1.07702C0.830863 7.07722 0.615479 7.29261 0.615479 7.53877V8.46187C0.615479 8.70803 0.830863 8.92342 1.07702 8.92342H2.0001C2.24625 8.92342 2.46163 8.70803 2.46163 8.46187V7.53877ZM14.154 7.53877C14.154 7.29261 13.9386 7.07722 13.6924 7.07722H4.15395C3.90779 7.07722 3.69241 7.29261 3.69241 7.53877V8.46187C3.69241 8.70803 3.90779 8.92342 4.15395 8.92342H13.6924C13.9386 8.92342 14.154 8.70803 14.154 8.46187V7.53877ZM2.46163 11.8465C2.46163 11.6003 2.24625 11.3849 2.0001 11.3849H1.07702C0.830863 11.3849 0.615479 11.6003 0.615479 11.8465V12.7696C0.615479 13.0157 0.830863 13.2311 1.07702 13.2311H2.0001C2.24625 13.2311 2.46163 13.0157 2.46163 12.7696V11.8465ZM15.3847 11.8465C15.3847 11.6003 15.1693 11.3849 14.9232 11.3849H4.15395C3.90779 11.3849 3.69241 11.6003 3.69241 11.8465V12.7696C3.69241 13.0157 3.90779 13.2311 4.15395 13.2311H14.9232C15.1693 13.2311 15.3847 13.0157 15.3847 12.7696V11.8465Z" fill="#3863b3ee"/>
</svg>
