<svg width="16" height="16" viewBox="0 0 16 16" fill="none" xmlns="http://www.w3.org/2000/svg">
<path fill-rule="evenodd" clip-rule="evenodd" d="M14.9232 9.53964H14.0001C13.7539 9.53964 13.5386 9.78581 13.5386 10.0012V13.0783C13.5386 13.3245 13.3232 13.5399 13.077 13.5399H2.92317C2.67702 13.5399 2.46163 13.3245 2.46163 13.0783V10.0012C2.46163 9.78581 2.24625 9.53964 2.00009 9.53964H1.07702C0.830863 9.53964 0.615479 9.78581 0.615479 10.0012V14.1553C0.615479 14.8323 1.16932 15.3862 1.84625 15.3862H14.1539C14.8309 15.3862 15.3847 14.8323 15.3847 14.1553V10.0012C15.3847 9.78581 15.1693 9.53964 14.9232 9.53964ZM8.30783 0.740033C8.12322 0.555406 7.84629 0.555406 7.66168 0.740033L3.50783 4.89415C3.32322 5.07878 3.32322 5.35572 3.50783 5.54034L4.15399 6.18654C4.3386 6.37117 4.61552 6.37117 4.80014 6.18654L6.52322 4.46335C6.70783 4.27872 7.07706 4.40181 7.07706 4.67875V11.2023C7.07706 11.4484 7.26168 11.6638 7.50783 11.6638H8.43091C8.67706 11.6638 8.92322 11.4177 8.92322 11.2023V4.70952C8.92322 4.43258 9.23091 4.3095 9.44629 4.49412L11.1694 6.21731C11.354 6.40194 11.6309 6.40194 11.8155 6.21731L12.4617 5.57112C12.6463 5.38649 12.6463 5.10955 12.4617 4.92492L8.30783 0.740033V0.740033Z" fill="#3863b3ee"/>
</svg>
