<svg width="16" height="16" viewBox="0 0 16 16" fill="none" xmlns="http://www.w3.org/2000/svg">
<path fill-rule="evenodd" clip-rule="evenodd" d="M9.29242 0.983954C9.04626 0.799339 8.7078 0.707031 8.3078 0.707031C8.21549 0.707031 8.12319 0.707031 8.03088 0.7378C6.95395 0.891647 6.24626 1.90703 5.81549 2.83011C5.63087 3.26088 5.44626 3.72242 5.29241 4.18395C5.2001 4.39934 5.13856 4.61472 5.04626 4.83011C5.04626 4.86088 4.92318 5.29165 4.89241 5.29165H3.78472C3.63087 5.29165 3.50779 5.41472 3.50779 5.56857C3.50779 5.72242 3.63087 5.84549 3.78472 5.84549H4.73856L4.18472 8.15319C3.69241 10.6763 2.98471 13.5993 2.8001 14.1224C2.61548 14.6455 2.36933 14.9224 2.03087 14.9224C1.96933 14.9224 1.90779 14.9224 1.87702 14.8916C1.84625 14.8609 1.81548 14.8301 1.81548 14.7686C1.81548 14.7378 1.84625 14.6455 1.90779 14.5532C1.96933 14.4609 2.0001 14.3378 2.0001 14.2455C2.0001 14.0301 1.93856 13.8763 1.78471 13.7532C1.66163 13.6301 1.50779 13.5686 1.32317 13.5686C1.13856 13.5686 0.98471 13.6301 0.830864 13.7532C0.677017 13.8763 0.615479 14.0609 0.615479 14.2763C0.615479 14.584 0.738556 14.8301 0.98471 15.0455C1.23086 15.2609 1.53856 15.3532 1.93856 15.3532C2.58471 15.3532 3.2001 15.0455 3.63087 14.5532C3.90779 14.2455 4.09241 13.8763 4.27702 13.4763C4.83087 12.2763 5.1078 10.9532 5.41549 9.69165C5.72318 8.39934 6.03087 7.10703 6.3078 5.78396H7.38472C7.53857 5.78396 7.66165 5.66088 7.66165 5.50703C7.66165 5.35319 7.53857 5.23011 7.38472 5.23011H6.43087C6.95395 3.19934 7.56934 1.81472 7.69242 1.59934C7.9078 1.26088 8.12319 1.07626 8.33857 1.07626C8.43088 1.07626 8.49242 1.10703 8.52319 1.1378C8.55396 1.19934 8.55396 1.23011 8.55396 1.26088C8.55396 1.29165 8.52319 1.35319 8.46165 1.47626C8.40011 1.59934 8.36934 1.72242 8.36934 1.84549C8.36934 2.03011 8.43088 2.15319 8.55396 2.27626C8.67703 2.39934 8.83088 2.46088 9.01549 2.46088C9.20011 2.46088 9.35396 2.39934 9.47703 2.27626C9.60011 2.15319 9.66165 1.96857 9.66165 1.75319C9.69242 1.41472 9.56934 1.16857 9.29242 0.983954V0.983954ZM14.1846 7.13782C14.5846 7.13782 15.3539 6.83012 15.3539 5.78397C15.3539 4.76858 14.6154 4.70705 14.4 4.70705C13.9385 4.70705 13.5077 5.04551 13.1077 5.72243C12.7077 6.43012 12.2769 7.16859 12.2769 7.16859C12.1846 6.67628 12.0923 6.27628 12.0616 6.09166C11.9692 5.66089 11.4769 4.73782 10.4615 4.73782C9.44616 4.73782 8.52308 5.32243 8.52308 5.32243C8.33847 5.44551 8.24616 5.63012 8.24616 5.84551C8.24616 6.18397 8.52308 6.46089 8.86155 6.46089C8.95385 6.46089 9.04616 6.43012 9.13847 6.39935C9.13847 6.39935 9.9077 5.96859 10.0615 6.39935C10.1231 6.52243 10.1539 6.67628 10.1846 6.83012C10.3692 7.50705 10.5539 8.27628 10.7077 8.98397L10.0308 9.93782C10.0308 9.93782 9.29232 9.66089 8.89232 9.66089C8.49231 9.66089 7.72308 9.96859 7.72308 11.0147C7.72308 12.0609 8.46154 12.0917 8.67693 12.0917C9.13847 12.0917 9.56924 11.7532 9.96924 11.0763C10.3692 10.3686 10.8 9.63012 10.8 9.63012C10.9231 10.2455 11.0462 10.7686 11.1077 10.984C11.3539 11.6917 11.9385 12.1224 12.7385 12.1224C12.7385 12.1224 13.5385 12.1224 14.4923 11.5994C14.7077 11.507 14.8923 11.2917 14.8923 11.0147C14.8923 10.6763 14.6154 10.3994 14.2769 10.3994C14.1846 10.3994 14.0923 10.4301 14 10.4609C14 10.4609 13.3231 10.8301 13.1077 10.5532C12.9539 10.2455 12.8 9.81474 12.7077 9.32243C12.6154 8.86089 12.4923 8.33782 12.4 7.81474L13.0769 6.83012C13.0462 6.86089 13.8154 7.13782 14.1846 7.13782V7.13782Z" fill="#747474"/>
</svg>
