<svg width="16" height="16" viewBox="0 0 16 16" fill="none" xmlns="http://www.w3.org/2000/svg">
<path d="M8.03088 5.04512C7.63894 5.04512 7.25083 5.12232 6.88872 5.27231C6.52661 5.4223 6.19759 5.64215 5.92044 5.9193C5.64329 6.19644 5.42345 6.52547 5.27346 6.88758C5.12347 7.24969 5.04627 7.63779 5.04627 8.02974C5.04627 8.42168 5.12347 8.80979 5.27346 9.1719C5.42345 9.53401 5.64329 9.86303 5.92044 10.1402C6.19759 10.4173 6.52661 10.6372 6.88872 10.7872C7.25083 10.9372 7.63894 11.0144 8.03088 11.0144C8.82245 11.0144 9.5816 10.6999 10.1413 10.1402C10.701 9.58046 11.0155 8.82131 11.0155 8.02974C11.0155 7.23817 10.701 6.47902 10.1413 5.9193C9.5816 5.35957 8.82245 5.04512 8.03088 5.04512ZM8.03088 10.1836C7.45149 10.1836 6.89582 9.95342 6.48613 9.54373C6.07643 9.13403 5.84627 8.57837 5.84627 7.99897C5.84627 6.79897 6.83088 5.81435 8.03088 5.81435C9.23088 5.81435 10.2155 6.79897 10.2155 7.99897C10.2 8.57346 9.96481 9.12015 9.55844 9.52652C9.15206 9.9329 8.60537 10.168 8.03088 10.1836ZM15.1693 9.87589C15.4886 8.64497 15.4886 7.35297 15.1693 6.12205H14.3386C14.2155 5.66051 14.0309 5.22974 13.8155 4.82974L14.4001 4.24512C13.754 3.1682 12.8617 2.24512 11.754 1.59897L11.1693 2.18358C10.7693 1.9682 10.3386 1.78358 9.87704 1.66051V0.860508C8.64611 0.541289 7.35411 0.541289 6.12319 0.860508V1.69128C5.69242 1.81435 5.26165 1.99897 4.86165 2.21435L4.24627 1.62974C3.155 2.2743 2.24467 3.18463 1.60011 4.27589L2.18473 4.86051C1.96934 5.26051 1.78473 5.69128 1.66165 6.15282H0.861651C0.536676 7.37257 0.536676 8.65614 0.861651 9.87589H1.69242C1.8155 10.3374 2.00011 10.7682 2.2155 11.1682L1.63088 11.7528C2.27704 12.8297 3.16934 13.7528 4.27704 14.399L4.86165 13.8144C5.26165 14.0297 5.69242 14.2144 6.15396 14.3374V15.1682C7.38488 15.4874 8.67688 15.4874 9.90781 15.1682V14.3374C10.3693 14.2144 10.8001 14.0297 11.2001 13.8144L11.7847 14.399C12.8617 13.7528 13.7847 12.8605 14.4309 11.7528L13.8463 11.1682C14.0617 10.7682 14.2463 10.3374 14.3693 9.87589H15.1693ZM13.3847 11.8759C13.1693 12.1528 12.954 12.4297 12.677 12.6759L11.877 13.3836L11.2924 12.799C10.6284 13.2614 9.87298 13.5762 9.07704 13.722V14.522C8.36479 14.65 7.63544 14.65 6.92319 14.522V13.722C6.12319 13.5682 5.35396 13.2605 4.70781 12.799L4.12319 13.3836C3.56117 12.9442 3.05487 12.4379 2.6155 11.8759L3.20011 11.2913C2.73764 10.6273 2.42287 9.87183 2.27704 9.07589H1.47704C1.34912 8.36364 1.34912 7.6343 1.47704 6.92205H2.30781C2.46165 6.12205 2.76934 5.35282 3.23088 4.70666L2.64627 4.12205C3.08563 3.56003 3.59194 3.05372 4.15396 2.61435L4.73857 3.19897C5.38473 2.73743 6.15396 2.42974 6.95396 2.27589V1.47589C7.66621 1.34798 8.39555 1.34798 9.10781 1.47589V2.30666C9.90781 2.46051 10.677 2.7682 11.3232 3.22974L11.9078 2.64512C12.4698 3.08449 12.9761 3.5908 13.4155 4.15282L12.8309 4.73743C13.2924 5.38358 13.6001 6.15282 13.754 6.95282H14.5847C14.7126 7.66507 14.7126 8.39441 14.5847 9.10666H13.754C13.6001 9.90666 13.2924 10.6759 12.8309 11.322L13.3847 11.8759Z" fill="#747474"/>
</svg>
